0
SECTION
2
HEADER
9
$INSUNITS
70
4
9
$ACADVER
1
AC1014
9
$HANDSEED
5
FFFF
0
ENDSEC
0
SECTION
2
TABLES
0
TABLE
2
VPORT
5
8
100
AcDbSymbolTable
0
ENDTAB
0
TABLE
2
LTYPE
5
5
100
AcDbSymbolTable
0
LTYPE
5
14
100
AcDbSymbolTableRecord
100
AcDbLinetypeTableRecord
2
BYBLOCK
70
0
0
LTYPE
5
15
100
AcDbSymbolTableRecord
100
AcDbLinetypeTableRecord
2
BYLAYER
70
0
0
LTYPE
5
16
100
AcDbSymbolTableRecord
100
AcDbLinetypeTableRecord
2
DASHED
70
0
3
Dashed __ __ __ __ __ __ __ __ __ __ __ __ __ _
72
65
73
2
40
0.75
49
0.5
74
0
49
-0.25
74
0
0
ENDTAB
0
TABLE
2
LAYER
5
2
100
AcDbSymbolTable
70
2
0
LAYER
5
50
100
AcDbSymbolTableRecord
100
AcDbLayerTableRecord
2
0
70
0
62
7
6
CONTINUOUS
0
ENDTAB
0
TABLE
2
STYLE
5
3
100
AcDbSymbolTable
70
1
0
STYLE
5
11
100
AcDbSymbolTableRecord
100
AcDbTextStyleTableRecord
2
STANDARD
70
0
0
ENDTAB
0
TABLE
2
VIEW
5
6
100
AcDbSymbolTable
70
0
0
ENDTAB
0
TABLE
2
UCS
5
7
100
AcDbSymbolTable
70
0
0
ENDTAB
0
TABLE
2
APPID
5
9
100
AcDbSymbolTable
70
2
0
APPID
5
12
100
AcDbSymbolTableRecord
100
AcDbRegAppTableRecord
2
ACAD
70
0
0
ENDTAB
0
TABLE
2
DIMSTYLE
5
A
100
AcDbSymbolTable
70
1
0
ENDTAB
0
TABLE
2
BLOCK_RECORD
5
1
100
AcDbSymbolTable
70
1
0
BLOCK_RECORD
5
1F
100
AcDbSymbolTableRecord
100
AcDbBlockTableRecord
2
*MODEL_SPACE
0
BLOCK_RECORD
5
1B
100
AcDbSymbolTableRecord
100
AcDbBlockTableRecord
2
*PAPER_SPACE
0
ENDTAB
0
ENDSEC
0
SECTION
2
BLOCKS
0
BLOCK
5
20
100
AcDbEntity
100
AcDbBlockBegin
2
*MODEL_SPACE
0
ENDBLK
5
21
100
AcDbEntity
100
AcDbBlockEnd
0
BLOCK
5
1C
100
AcDbEntity
100
AcDbBlockBegin
2
*PAPER_SPACE
0
ENDBLK
5
1D
100
AcDbEntity
100
AcDbBlockEnd
0
ENDSEC
0
SECTION
2
ENTITIES
0
ARC
5
100
100
AcDbEntity
8
0
100
AcDbCircle
10
0
20
0
30
0
40
27.640346392419787
210
0
220
0
230
1
100
AcDbArc
50
184.14943386864135
51
192.99342327421573
0
LINE
5
101
100
AcDbEntity
8
0
100
AcDbLine
10
-26.932639632441155
20
-6.2146336273358624
30
0
11
-28.924121152673912
21
-6.8289243221713791
31
0
0
SPLINE
5
102
100
AcDbEntity
8
0
100
AcDbSpline
70
4
71
3
72
8
73
4
74
0
42
0.000000001
43
0.0000000001
44
0.0000000001
40
0
40
0
40
0
40
0
40
1
40
1
40
1
40
1
41
1
41
1
41
1
41
1
10
-28.924121152673912
20
-6.8289243221713791
30
0
10
-30.588650610597035
20
-7.4369709078951427
30
0
10
-32.066364834952608
20
-8.856519921883125
30
0
10
-33.214870725232373
20
-10.24543075563683
30
0
0
SPLINE
5
103
100
AcDbEntity
8
0
100
AcDbSpline
70
4
71
3
72
8
73
4
74
0
42
0.000000001
43
0.0000000001
44
0.0000000001
40
0
40
0
40
0
40
0
40
1
40
1
40
1
40
1
41
1
41
1
41
1
41
1
10
-33.214870725232373
20
-10.24543075563683
30
0
10
-31.483529294637592
20
-10.746026335752891
30
0
10
-29.462924072132864
20
-11.086486710486378
30
0
10
-27.7451004550303
20
-10.651215545315942
30
0
0
LINE
5
104
100
AcDbEntity
8
0
100
AcDbLine
10
-27.7451004550303
20
-10.651215545315944
30
0
11
-25.753618934797547
21
-10.036924850480421
31
0
0
ARC
5
105
100
AcDbEntity
8
0
100
AcDbCircle
10
0
20
0
30
0
40
27.640346392419801
210
0
220
0
230
1
100
AcDbArc
50
201.29229101149855
51
210.13628041707292
0
LINE
5
106
100
AcDbEntity
8
0
100
AcDbLine
10
-23.904302602073557
20
-13.877069784412463
30
0
11
-25.62624282513838
21
-15.051068750077047
31
0
0
SPLINE
5
107
100
AcDbEntity
8
0
100
AcDbSpline
70
4
71
3
72
8
73
4
74
0
42
0.000000001
43
0.0000000001
44
0.0000000001
40
0
40
0
40
0
40
0
40
1
40
1
40
1
40
1
41
1
41
1
41
1
41
1
10
-25.62624282513838
20
-15.051068750077047
30
0
10
-27.037597032134705
20
-16.122730202728007
30
0
10
-28.031241142449396
20
-17.91477655090485
30
0
10
-28.719333483441673
20
-19.58051002730301
30
0
0
SPLINE
5
108
100
AcDbEntity
8
0
100
AcDbSpline
70
4
71
3
72
8
73
4
74
0
42
0.000000001
43
0.0000000001
44
0.0000000001
40
0
40
0
40
0
40
0
40
1
40
1
40
1
40
1
41
1
41
1
41
1
41
1
10
-28.719333483441673
20
-19.58051002730301
30
0
10
-26.917357557307987
20
-19.548543705018869
30
0
10
-24.886169698318447
20
-19.27829453578698
30
0
10
-23.372962592883898
20
-18.356023847341024
30
0
0
LINE
5
109
100
AcDbEntity
8
0
100
AcDbLine
10
-23.372962592883898
20
-18.356023847341028
30
0
11
-21.651022369819081
21
-17.182024881676433
31
0
0
ARC
5
110
100
AcDbEntity
8
0
100
AcDbCircle
10
0
20
0
30
0
40
27.640346392419801
210
0
220
0
230
1
100
AcDbArc
50
218.43514815435566
51
227.27913755993004
0
LINE
5
111
100
AcDbEntity
8
0
100
AcDbLine
10
-18.751963383207602
20
-20.306467392626306
30
0
11
-20.051360363674974
21
-21.935859669011069
31
0
0
SPLINE
5
112
100
AcDbEntity
8
0
100
AcDbSpline
70
4
71
3
72
8
73
4
74
0
42
0.000000001
43
0.0000000001
44
0.0000000001
40
0
40
0
40
0
40
0
40
1
40
1
40
1
40
1
41
1
41
1
41
1
41
1
10
-20.051360363674974
20
-21.935859669011069
30
0
10
-21.084134304826947
20
-23.375914165612365
30
0
10
-21.50541866136394
20
-25.381226665676696
30
0
10
-21.67195742892806
20
-27.175775055390371
30
0
0
SPLINE
5
113
100
AcDbEntity
8
0
100
AcDbSpline
70
4
71
3
72
8
73
4
74
0
42
0.000000001
43
0.0000000001
44
0.0000000001
40
0
40
0
40
0
40
0
40
1
40
1
40
1
40
1
41
1
41
1
41
1
41
1
10
-21.67195742892806
20
-27.175775055390371
30
0
10
-19.959460476133554
20
-26.614087178722862
30
0
10
-18.098169935651519
20
-25.757141290180797
30
0
10
-16.924034433802856
20
-24.429818876446006
30
0
0
LINE
5
114
100
AcDbEntity
8
0
100
AcDbLine
10
-16.924034433802856
20
-24.42981887644601
30
0
11
-15.624637453335481
21
-22.800426600061243
31
0
0
ARC
5
115
100
AcDbEntity
8
0
100
AcDbCircle
10
0
20
0
30
0
40
27.640346392419801
210
0
220
0
230
1
100
AcDbArc
50
235.57800529721285
51
244.42199470278717
0
LINE
5
116
100
AcDbEntity
8
0
100
AcDbLine
10
-11.933429926107744
20
-24.931546259540948
30
0
11
-12.694826539953429
21
-26.871553192418865
31
0
0
SPLINE
5
117
100
AcDbEntity
8
0
100
AcDbSpline
70
4
71
3
72
8
73
4
74
0
42
0.000000001
43
0.0000000001
44
0.0000000001
40
0
40
0
40
0
40
0
40
1
40
1
40
1
40
1
41
1
41
1
41
1
41
1
10
-12.694826539953429
20
-26.871553192418865
30
0
10
-13.257253718335908
20
-28.552045571372396
30
0
10
-13.068745357240946
20
-30.592443407524538
30
0
10
-12.698932851035494
20
-32.356353210881778
30
0
0
SPLINE
5
118
100
AcDbEntity
8
0
100
AcDbSpline
70
4
71
3
72
8
73
4
74
0
42
0.000000001
43
0.0000000001
44
0.0000000001
40
0
40
0
40
0
40
0
40
1
40
1
40
1
40
1
41
1
41
1
41
1
41
1
10
-12.698932851035494
20
-32.356353210881778
30
0
10
-11.228077741005054
20
-31.314852212599455
30
0
10
-9.702068351691354
20
-29.947353007589271
30
0
10
-8.9713315453766107
20
-28.332917289884442
30
0
0
LINE
5
119
100
AcDbEntity
8
0
100
AcDbLine
10
-8.9713315453766089
20
-28.332917289884442
30
0
11
-8.2099349315309347
21
-26.392910357006521
31
0
0
ARC
5
120
100
AcDbEntity
8
0
100
AcDbCircle
10
0
20
0
30
0
40
27.640346392419801
210
0
220
0
230
1
100
AcDbArc
50
252.72086244006994
51
261.56485184564434
0
LINE
5
121
100
AcDbEntity
8
0
100
AcDbLine
10
-4.0545588510785517
20
-27.341347831006701
30
0
11
-4.2103016678283476
21
-29.419591290811372
31
0
0
SPLINE
5
122
100
AcDbEntity
8
0
100
AcDbSpline
70
4
71
3
72
8
73
4
74
0
42
0.000000001
43
0.0000000001
44
0.0000000001
40
0
40
0
40
0
40
0
40
1
40
1
40
1
40
1
41
1
41
1
41
1
41
1
10
-4.2103016678283476
20
-29.419591290811372
30
0
10
-4.2524079604710323
20
-31.191202429527785
30
0
10
-3.4708566768827143
20
-33.085387299887195
30
0
10
-2.5975523609795008
20
-34.661927390069032
30
0
0
SPLINE
5
123
100
AcDbEntity
8
0
100
AcDbSpline
70
4
71
3
72
8
73
4
74
0
42
0.000000001
43
0.0000000001
44
0.0000000001
40
0
40
0
40
0
40
0
40
1
40
1
40
1
40
1
41
1
41
1
41
1
41
1
10
-2.5975523609795008
20
-34.661927390069032
30
0
10
-1.4990310249806651
20
-33.233155204421138
30
0
10
-0.44389541785772979
20
-31.476610988479401
30
0
10
-0.22148647910362584
20
-29.718511665157067
30
0
0
LINE
5
124
100
AcDbEntity
8
0
100
AcDbLine
10
-0.22148647910362615
20
-29.718511665157067
30
0
11
-0.065743662353842103
21
-27.640268205352392
31
0
0
ARC
5
125
100
AcDbEntity
8
0
100
AcDbCircle
10
0
20
0
30
0
40
27.640346392419794
210
0
220
0
230
1
100
AcDbArc
50
269.8637195829271
51
278.70770898850145
0
LINE
5
126
100
AcDbEntity
8
0
100
AcDbLine
10
4.1845775710073987
20
-27.321750662158813
30
0
11
4.6483269840878174
21
-29.353569597265391
31
0
0
SPLINE
5
127
100
AcDbEntity
8
0
100
AcDbSpline
70
4
71
3
72
8
73
4
74
0
42
0.000000001
43
0.0000000001
44
0.0000000001
40
0
40
0
40
0
40
0
40
1
40
1
40
1
40
1
41
1
41
1
41
1
41
1
10
4.6483269840878174
20
-29.353569597265391
30
0
10
5.1302829060666522
20
-31.058884071482304
30
0
10
6.4354328508201846
20
-32.638549337824173
30
0
10
7.7346320555202928
20
-33.887637209285714
30
0
0
SPLINE
5
128
100
AcDbEntity
8
0
100
AcDbSpline
70
4
71
3
72
8
73
4
74
0
42
0.000000001
43
0.0000000001
44
0.0000000001
40
0
40
0
40
0
40
0
40
1
40
1
40
1
40
1
41
1
41
1
41
1
41
1
10
7.7346320555202928
20
-33.887637209285714
30
0
10
8.3632111760025474
20
-32.198546515030522
30
0
10
8.8537195718555033
20
-30.209033950210987
30
0
10
8.5480386328151123
20
-28.463485861440137
30
0
0
LINE
5
129
100
AcDbEntity
8
0
100
AcDbLine
10
8.5480386328151141
20
-28.463485861440137
30
0
11
8.0842892197346945
21
-26.431666926333559
31
0
0
ARC
5
130
100
AcDbEntity
8
0
100
AcDbCircle
10
0
20
0
30
0
40
27.640346392419794
210
-0
220
0
230
1
100
AcDbArc
50
287.00657672578427
51
295.85056613135862
0
LINE
5
131
100
AcDbEntity
8
0
100
AcDbLine
10
12.051895912193164
20
-24.874496047450204
30
0
11
13.093931384620811
21
-26.679354428983931
31
0
0
SPLINE
5
132
100
AcDbEntity
8
0
100
AcDbSpline
70
4
71
3
72
8
73
4
74
0
42
0.000000001
43
0.0000000001
44
0.0000000001
40
0
40
0
40
0
40
0
40
1
40
1
40
1
40
1
41
1
41
1
41
1
41
1
10
13.093931384620811
20
-26.679354428983931
30
0
10
14.057125622524618
20
-28.166847564017861
30
0
10
15.76990592829582
20
-29.291633035180858
30
0
10
17.379560471013416
20
-30.102281749010913
30
0
0
SPLINE
5
133
100
AcDbEntity
8
0
100
AcDbSpline
70
4
71
3
72
8
73
4
74
0
42
0.000000001
43
0.0000000001
44
0.0000000001
40
0
40
0
40
0
40
0
40
1
40
1
40
1
40
1
41
1
41
1
41
1
41
1
10
17.379560471013416
20
-30.102281749010913
30
0
10
17.482345362650207
20
-28.302955666785422
30
0
10
17.364642723701003
20
-26.257251675304385
30
0
10
16.558032999758566
20
-24.679354428983928
30
0
0
LINE
5
134
100
AcDbEntity
8
0
100
AcDbLine
10
16.558032999758566
20
-24.679354428983935
30
0
11
15.515997527330915
21
-22.874496047450204
31
0
0
ARC
5
135
100
AcDbEntity
8
0
100
AcDbCircle
10
0
20
0
30
0
40
27.640346392419794
210
-0
220
0
230
1
100
AcDbArc
50
304.14943386864144
51
312.99342327421573
0
LINE
5
136
100
AcDbEntity
8
0
100
AcDbLine
10
18.848350412706459
20
-20.217033298997713
30
0
11
20.376082519858798
21
-21.634561539268759
31
0
0
SPLINE
5
137
100
AcDbEntity
8
0
100
AcDbSpline
70
4
71
3
72
8
73
4
74
0
42
0.000000001
43
0.0000000001
44
0.0000000001
40
0
40
0
40
0
40
0
40
1
40
1
40
1
40
1
41
1
41
1
41
1
41
1
10
20.376082519858798
20
-21.634561539268759
30
0
10
21.734931038741536
20
-22.772063042315839
30
0
10
23.703153658950065
20
-23.342026593147395
30
0
10
25.48023866971208
20
-23.642206453648882
30
0
0
SPLINE
5
138
100
AcDbEntity
8
0
100
AcDbSpline
70
4
71
3
72
8
73
4
74
0
42
0.000000001
43
0.0000000001
44
0.0000000001
40
0
40
0
40
0
40
0
40
1
40
1
40
1
40
1
41
1
41
1
41
1
41
1
10
25.48023866971208
20
-23.642206453648882
30
0
10
25.048096443817407
20
-21.892523002071279
30
0
10
24.332641166066207
20
-19.972397360995927
30
0
10
23.096773470942473
20
-18.702354051949452
30
0
0
LINE
5
139
100
AcDbEntity
8
0
100
AcDbLine
10
23.096773470942473
20
-18.702354051949452
30
0
11
21.569041363790141
21
-17.284825811678395
31
0
0
ARC
5
140
100
AcDbEntity
8
0
100
AcDbCircle
10
0
20
0
30
0
40
27.640346392419794
210
-0
220
0
230
1
100
AcDbArc
50
321.29229101149855
51
330.1362804170729
0
LINE
5
141
100
AcDbEntity
8
0
100
AcDbLine
10
23.970046264427403
20
-13.76319842093995
30
0
11
25.847729304242012
21
-14.667442915080024
31
0
0
SPLINE
5
142
100
AcDbEntity
8
0
100
AcDbSpline
70
4
71
3
72
8
73
4
74
0
42
0.000000001
43
0.0000000001
44
0.0000000001
40
0
40
0
40
0
40
0
40
1
40
1
40
1
40
1
41
1
41
1
41
1
41
1
10
25.847729304242012
20
-14.667442915080024
30
0
10
27.481492449992434
20
-15.3538807857514
30
0
10
29.530272167430066
20
-15.318378653516289
30
0
10
31.316885844421172
20
-15.081417362766024
30
0
0
SPLINE
5
143
100
AcDbEntity
8
0
100
AcDbSpline
70
4
71
3
72
8
73
4
74
0
42
0.000000001
43
0.0000000001
44
0.0000000001
40
0
40
0
40
0
40
0
40
1
40
1
40
1
40
1
41
1
41
1
41
1
41
1
10
31.316885844421172
20
-15.081417362766024
30
0
10
30.388214234190706
20
-13.53684359486833
30
0
10
29.138577658789476
20
-11.912907893740808
30
0
10
27.583264260712244
20
-11.063567443470346
30
0
0
LINE
5
144
100
AcDbEntity
8
0
100
AcDbLine
10
27.583264260712244
20
-11.063567443470347
30
0
11
25.705581220897642
21
-10.159322949330267
31
0
0
ARC
5
145
100
AcDbEntity
8
0
100
AcDbCircle
10
0
20
0
30
0
40
27.640346392419801
210
-0
220
0
230
1
100
AcDbArc
50
338.43514815435572
51
347.27913755993001
0
LINE
5
146
100
AcDbEntity
8
0
100
AcDbLine
10
26.961898314738534
20
-6.086442964380212
30
0
11
29.022691909051588
21
-6.3970576208733663
31
0
0
SPLINE
5
147
100
AcDbEntity
8
0
100
AcDbSpline
70
4
71
3
72
8
73
4
74
0
42
0.000000001
43
0.0000000001
44
0.0000000001
40
0
40
0
40
0
40
0
40
1
40
1
40
1
40
1
41
1
41
1
41
1
41
1
10
29.022691909051588
20
-6.3970576208733663
30
0
10
30.786202656518302
20
-6.571438841976903
30
0
10
32.733496402368999
20
-5.9336255469227552
30
0
10
34.370890279963554
20
-5.1805781554913963
30
0
0
SPLINE
5
148
100
AcDbEntity
8
0
100
AcDbSpline
70
4
71
3
72
8
73
4
74
0
42
0.000000001
43
0.0000000001
44
0.0000000001
40
0
40
0
40
0
40
0
40
1
40
1
40
1
40
1
41
1
41
1
41
1
41
1
10
34.370890279963554
20
-5.1805781554913963
30
0
10
33.0282058333745
20
-3.9783562288016672
30
0
10
31.355423653987422
20
-2.7949042811915881
30
0
10
29.618860973756284
20
-2.4417343159728517
30
0
0
LINE
5
149
100
AcDbEntity
8
0
100
AcDbLine
10
29.618860973756284
20
-2.4417343159728517
30
0
11
27.55806737944323
21
-2.1311196594796975
31
0
0
ARC
5
150
100
AcDbEntity
8
0
100
AcDbCircle
10
0
20
0
30
0
40
27.640346392419794
210
-0
220
0
230
1
100
AcDbArc
50
-4.4219947027871447
51
4.4219947027871509
0
LINE
5
151
100
AcDbEntity
8
0
100
AcDbLine
10
27.558067379443226
20
2.1311196594796908
30
0
11
29.618860973756284
21
2.4417343159728579
31
0
0
SPLINE
5
152
100
AcDbEntity
8
0
100
AcDbSpline
70
4
71
3
72
8
73
4
74
0
42
0.000000001
43
0.0000000001
44
0.0000000001
40
0
40
0
40
0
40
0
40
1
40
1
40
1
40
1
41
1
41
1
41
1
41
1
10
29.618860973756284
20
2.4417343159728579
30
0
10
31.355423653987422
20
2.7949042811915943
30
0
10
33.0282058333745
20
3.9783562288016738
30
0
10
34.370890279963554
20
5.1805781554914034
30
0
0
SPLINE
5
153
100
AcDbEntity
8
0
100
AcDbSpline
70
4
71
3
72
8
73
4
74
0
42
0.000000001
43
0.0000000001
44
0.0000000001
40
0
40
0
40
0
40
0
40
1
40
1
40
1
40
1
41
1
41
1
41
1
41
1
10
34.370890279963554
20
5.1805781554914034
30
0
10
32.733496402368999
20
5.9336255469227615
30
0
10
30.786202656518302
20
6.5714388419769083
30
0
10
29.022691909051588
20
6.3970576208733734
30
0
0
LINE
5
154
100
AcDbEntity
8
0
100
AcDbLine
10
29.022691909051584
20
6.3970576208733734
30
0
11
26.961898314738537
21
6.0864429643802174
31
0
0
ARC
5
155
100
AcDbEntity
8
0
100
AcDbCircle
10
0
20
0
30
0
40
27.640346392419801
210
0
220
-0
230
1
100
AcDbArc
50
12.720862440069963
51
21.564851845644245
0
LINE
5
156
100
AcDbEntity
8
0
100
AcDbLine
10
25.705581220897646
20
10.159322949330235
30
0
11
27.583264260712244
21
11.063567443470337
31
0
0
SPLINE
5
157
100
AcDbEntity
8
0
100
AcDbSpline
70
4
71
3
72
8
73
4
74
0
42
0.000000001
43
0.0000000001
44
0.0000000001
40
0
40
0
40
0
40
0
40
1
40
1
40
1
40
1
41
1
41
1
41
1
41
1
10
27.583264260712244
20
11.063567443470337
30
0
10
29.138577658789476
20
11.912907893740798
30
0
10
30.388214234190706
20
13.536843594868323
30
0
10
31.316885844421172
20
15.081417362766011
30
0
0
SPLINE
5
158
100
AcDbEntity
8
0
100
AcDbSpline
70
4
71
3
72
8
73
4
74
0
42
0.000000001
43
0.0000000001
44
0.0000000001
40
0
40
0
40
0
40
0
40
1
40
1
40
1
40
1
41
1
41
1
41
1
41
1
10
31.316885844421172
20
15.081417362766011
30
0
10
29.530272167430066
20
15.31837865351628
30
0
10
27.481492449992434
20
15.353880785751389
30
0
10
25.847729304242012
20
14.667442915080017
30
0
0
LINE
5
159
100
AcDbEntity
8
0
100
AcDbLine
10
25.847729304242009
20
14.667442915080017
30
0
11
23.97004626442741
21
13.763198420939936
31
0
0
ARC
5
160
100
AcDbEntity
8
0
100
AcDbCircle
10
0
20
0
30
0
40
27.640346392419801
210
0
220
-0
230
1
100
AcDbArc
50
29.863719582927111
51
38.707708988501487
0
LINE
5
161
100
AcDbEntity
8
0
100
AcDbLine
10
21.569041363790127
20
17.284825811678409
30
0
11
23.09677347094247
21
18.702354051949456
31
0
0
SPLINE
5
162
100
AcDbEntity
8
0
100
AcDbSpline
70
4
71
3
72
8
73
4
74
0
42
0.000000001
43
0.0000000001
44
0.0000000001
40
0
40
0
40
0
40
0
40
1
40
1
40
1
40
1
41
1
41
1
41
1
41
1
10
23.09677347094247
20
18.702354051949456
30
0
10
24.332641166066207
20
19.972397360995934
30
0
10
25.048096443817403
20
21.892523002071282
30
0
10
25.480238669712072
20
23.642206453648885
30
0
0
SPLINE
5
163
100
AcDbEntity
8
0
100
AcDbSpline
70
4
71
3
72
8
73
4
74
0
42
0.000000001
43
0.0000000001
44
0.0000000001
40
0
40
0
40
0
40
0
40
1
40
1
40
1
40
1
41
1
41
1
41
1
41
1
10
25.480238669712072
20
23.642206453648885
30
0
10
23.703153658950061
20
23.342026593147402
30
0
10
21.734931038741525
20
22.772063042315843
30
0
10
20.376082519858794
20
21.634561539268763
30
0
0
LINE
5
164
100
AcDbEntity
8
0
100
AcDbLine
10
20.376082519858794
20
21.634561539268763
30
0
11
18.848350412706459
21
20.217033298997706
31
0
0
ARC
5
165
100
AcDbEntity
8
0
100
AcDbCircle
10
0
20
0
30
0
40
27.640346392419794
210
0
220
-0
230
1
100
AcDbArc
50
47.006576725784278
51
55.850566131358597
0
LINE
5
166
100
AcDbEntity
8
0
100
AcDbLine
10
15.51599752733091
20
22.874496047450208
30
0
11
16.558032999758549
21
24.679354428983938
31
0
0
SPLINE
5
167
100
AcDbEntity
8
0
100
AcDbSpline
70
4
71
3
72
8
73
4
74
0
42
0.000000001
43
0.0000000001
44
0.0000000001
40
0
40
0
40
0
40
0
40
1
40
1
40
1
40
1
41
1
41
1
41
1
41
1
10
16.558032999758549
20
24.679354428983938
30
0
10
17.364642723700989
20
26.257251675304396
30
0
10
17.482345362650186
20
28.302955666785433
30
0
10
17.379560471013399
20
30.102281749010924
30
0
0
SPLINE
5
168
100
AcDbEntity
8
0
100
AcDbSpline
70
4
71
3
72
8
73
4
74
0
42
0.000000001
43
0.0000000001
44
0.0000000001
40
0
40
0
40
0
40
0
40
1
40
1
40
1
40
1
41
1
41
1
41
1
41
1
10
17.379560471013399
20
30.102281749010924
30
0
10
15.769905928295799
20
29.291633035180865
30
0
10
14.0571256225246
20
28.166847564017871
30
0
10
13.093931384620792
20
26.679354428983938
30
0
0
LINE
5
169
100
AcDbEntity
8
0
100
AcDbLine
10
13.093931384620792
20
26.679354428983942
30
0
11
12.051895912193142
21
24.874496047450208
31
0
0
ARC
5
170
100
AcDbEntity
8
0
100
AcDbCircle
10
0
20
0
30
0
40
27.640346392419794
210
0
220
-0
230
1
100
AcDbArc
50
64.149433868641452
51
72.993423274215729
0
LINE
5
171
100
AcDbEntity
8
0
100
AcDbLine
10
8.0842892197346963
20
26.431666926333556
30
0
11
8.5480386328151212
21
28.463485861440137
31
0
0
SPLINE
5
172
100
AcDbEntity
8
0
100
AcDbSpline
70
4
71
3
72
8
73
4
74
0
42
0.000000001
43
0.0000000001
44
0.0000000001
40
0
40
0
40
0
40
0
40
1
40
1
40
1
40
1
41
1
41
1
41
1
41
1
10
8.5480386328151212
20
28.463485861440137
30
0
10
8.8537195718555104
20
30.20903395021098
30
0
10
8.3632111760025563
20
32.198546515030522
30
0
10
7.7346320555203016
20
33.887637209285714
30
0
0
SPLINE
5
173
100
AcDbEntity
8
0
100
AcDbSpline
70
4
71
3
72
8
73
4
74
0
42
0.000000001
43
0.0000000001
44
0.0000000001
40
0
40
0
40
0
40
0
40
1
40
1
40
1
40
1
41
1
41
1
41
1
41
1
10
7.7346320555203016
20
33.887637209285714
30
0
10
6.4354328508201935
20
32.638549337824173
30
0
10
5.1302829060666602
20
31.058884071482311
30
0
10
4.6483269840878254
20
29.353569597265391
30
0
0
LINE
5
174
100
AcDbEntity
8
0
100
AcDbLine
10
4.6483269840878245
20
29.353569597265398
30
0
11
4.1845775710074049
21
27.321750662158813
31
0
0
ARC
5
175
100
AcDbEntity
8
0
100
AcDbCircle
10
0
20
0
30
0
40
27.640346392419794
210
0
220
-0
230
1
100
AcDbArc
50
81.292291011498548
51
90.136280417072868
0
LINE
5
176
100
AcDbEntity
8
0
100
AcDbLine
10
-0.065743662353840437
20
27.640268205352388
30
0
11
-0.2214864791036314
21
29.71851166515706
31
0
0
SPLINE
5
177
100
AcDbEntity
8
0
100
AcDbSpline
70
4
71
3
72
8
73
4
74
0
42
0.000000001
43
0.0000000001
44
0.0000000001
40
0
40
0
40
0
40
0
40
1
40
1
40
1
40
1
41
1
41
1
41
1
41
1
10
-0.2214864791036314
20
29.71851166515706
30
0
10
-0.44389541785773562
20
31.476610988479401
30
0
10
-1.4990310249806715
20
33.233155204421138
30
0
10
-2.5975523609795075
20
34.661927390069025
30
0
0
SPLINE
5
178
100
AcDbEntity
8
0
100
AcDbSpline
70
4
71
3
72
8
73
4
74
0
42
0.000000001
43
0.0000000001
44
0.0000000001
40
0
40
0
40
0
40
0
40
1
40
1
40
1
40
1
41
1
41
1
41
1
41
1
10
-2.5975523609795075
20
34.661927390069025
30
0
10
-3.4708566768827205
20
33.085387299887195
30
0
10
-4.2524079604710376
20
31.191202429527777
30
0
10
-4.210301667828352
20
29.419591290811368
30
0
0
LINE
5
179
100
AcDbEntity
8
0
100
AcDbLine
10
-4.2103016678283529
20
29.419591290811372
30
0
11
-4.0545588510785677
21
27.341347831006694
31
0
0
ARC
5
180
100
AcDbEntity
8
0
100
AcDbCircle
10
0
20
0
30
0
40
27.640346392419794
210
0
220
0
230
1
100
AcDbArc
50
98.435148154355701
51
107.27913755993004
0
LINE
5
181
100
AcDbEntity
8
0
100
AcDbLine
10
-8.2099349315309382
20
26.392910357006517
30
0
11
-8.9713315453766196
21
28.332917289884438
31
0
0
SPLINE
5
182
100
AcDbEntity
8
0
100
AcDbSpline
70
4
71
3
72
8
73
4
74
0
42
0.000000001
43
0.0000000001
44
0.0000000001
40
0
40
0
40
0
40
0
40
1
40
1
40
1
40
1
41
1
41
1
41
1
41
1
10
-8.9713315453766196
20
28.332917289884438
30
0
10
-9.7020683516913664
20
29.947353007589264
30
0
10
-11.228077741005064
20
31.314852212599451
30
0
10
-12.698932851035504
20
32.356353210881764
30
0
0
SPLINE
5
183
100
AcDbEntity
8
0
100
AcDbSpline
70
4
71
3
72
8
73
4
74
0
42
0.000000001
43
0.0000000001
44
0.0000000001
40
0
40
0
40
0
40
0
40
1
40
1
40
1
40
1
41
1
41
1
41
1
41
1
10
-12.698932851035504
20
32.356353210881764
30
0
10
-13.068745357240957
20
30.592443407524534
30
0
10
-13.257253718335917
20
28.552045571372389
30
0
10
-12.694826539953436
20
26.871553192418858
30
0
0
LINE
5
184
100
AcDbEntity
8
0
100
AcDbLine
10
-12.694826539953439
20
26.871553192418858
30
0
11
-11.933429926107761
21
24.931546259540941
31
0
0
ARC
5
185
100
AcDbEntity
8
0
100
AcDbCircle
10
0
20
0
30
0
40
27.640346392419801
210
0
220
0
230
1
100
AcDbArc
50
115.57800529721287
51
124.42199470278715
0
LINE
5
186
100
AcDbEntity
8
0
100
AcDbLine
10
-15.62463745333547
20
22.80042660006124
30
0
11
-16.924034433802852
21
24.42981887644601
31
0
0
SPLINE
5
187
100
AcDbEntity
8
0
100
AcDbSpline
70
4
71
3
72
8
73
4
74
0
42
0.000000001
43
0.0000000001
44
0.0000000001
40
0
40
0
40
0
40
0
40
1
40
1
40
1
40
1
41
1
41
1
41
1
41
1
10
-16.924034433802852
20
24.42981887644601
30
0
10
-18.098169935651512
20
25.757141290180805
30
0
10
-19.959460476133547
20
26.614087178722869
30
0
10
-21.671957428928053
20
27.175775055390375
30
0
0
SPLINE
5
188
100
AcDbEntity
8
0
100
AcDbSpline
70
4
71
3
72
8
73
4
74
0
42
0.000000001
43
0.0000000001
44
0.0000000001
40
0
40
0
40
0
40
0
40
1
40
1
40
1
40
1
41
1
41
1
41
1
41
1
10
-21.671957428928053
20
27.175775055390375
30
0
10
-21.505418661363937
20
25.381226665676699
30
0
10
-21.084134304826939
20
23.375914165612368
30
0
10
-20.051360363674966
20
21.935859669011073
30
0
0
LINE
5
189
100
AcDbEntity
8
0
100
AcDbLine
10
-20.051360363674966
20
21.935859669011077
30
0
11
-18.751963383207592
21
20.306467392626306
31
0
0
ARC
5
190
100
AcDbEntity
8
0
100
AcDbCircle
10
0
20
0
30
0
40
27.640346392419794
210
0
220
0
230
1
100
AcDbArc
50
132.72086244006999
51
141.56485184564431
0
LINE
5
191
100
AcDbEntity
8
0
100
AcDbLine
10
-21.651022369819074
20
17.182024881676433
30
0
11
-23.372962592883898
21
18.356023847341024
31
0
0
SPLINE
5
192
100
AcDbEntity
8
0
100
AcDbSpline
70
4
71
3
72
8
73
4
74
0
42
0.000000001
43
0.0000000001
44
0.0000000001
40
0
40
0
40
0
40
0
40
1
40
1
40
1
40
1
41
1
41
1
41
1
41
1
10
-23.372962592883898
20
18.356023847341024
30
0
10
-24.886169698318447
20
19.278294535786976
30
0
10
-26.917357557307987
20
19.548543705018865
30
0
10
-28.719333483441673
20
19.580510027303006
30
0
0
SPLINE
5
193
100
AcDbEntity
8
0
100
AcDbSpline
70
4
71
3
72
8
73
4
74
0
42
0.000000001
43
0.0000000001
44
0.0000000001
40
0
40
0
40
0
40
0
40
1
40
1
40
1
40
1
41
1
41
1
41
1
41
1
10
-28.719333483441673
20
19.580510027303006
30
0
10
-28.031241142449396
20
17.914776550904847
30
0
10
-27.037597032134705
20
16.122730202728
30
0
10
-25.62624282513838
20
15.051068750077043
30
0
0
LINE
5
194
100
AcDbEntity
8
0
100
AcDbLine
10
-25.62624282513838
20
15.051068750077043
30
0
11
-23.904302602073564
21
13.87706978441245
31
0
0
ARC
5
195
100
AcDbEntity
8
0
100
AcDbCircle
10
0
20
0
30
0
40
27.640346392419794
210
0
220
0
230
1
100
AcDbArc
50
149.86371958292713
51
158.70770898850145
0
LINE
5
196
100
AcDbEntity
8
0
100
AcDbLine
10
-25.753618934797544
20
10.036924850480416
30
0
11
-27.7451004550303
21
10.651215545315933
31
0
0
SPLINE
5
197
100
AcDbEntity
8
0
100
AcDbSpline
70
4
71
3
72
8
73
4
74
0
42
0.000000001
43
0.0000000001
44
0.0000000001
40
0
40
0
40
0
40
0
40
1
40
1
40
1
40
1
41
1
41
1
41
1
41
1
10
-27.7451004550303
20
10.651215545315933
30
0
10
-29.462924072132868
20
11.086486710486367
30
0
10
-31.483529294637599
20
10.746026335752884
30
0
10
-33.21487072523238
20
10.24543075563682
30
0
0
SPLINE
5
198
100
AcDbEntity
8
0
100
AcDbSpline
70
4
71
3
72
8
73
4
74
0
42
0.000000001
43
0.0000000001
44
0.0000000001
40
0
40
0
40
0
40
0
40
1
40
1
40
1
40
1
41
1
41
1
41
1
41
1
10
-33.21487072523238
20
10.24543075563682
30
0
10
-32.066364834952616
20
8.8565199218831143
30
0
10
-30.588650610597039
20
7.4369709078951329
30
0
10
-28.924121152673912
20
6.8289243221713676
30
0
0
LINE
5
199
100
AcDbEntity
8
0
100
AcDbLine
10
-28.924121152673912
20
6.8289243221713676
30
0
11
-26.932639632441166
21
6.2146336273358482
31
0
0
ARC
5
200
100
AcDbEntity
8
0
100
AcDbCircle
10
0
20
0
30
0
40
27.640346392419801
210
0
220
0
230
1
100
AcDbArc
50
167.00657672578427
51
175.85056613135853
0
LINE
5
201
100
AcDbEntity
8
0
100
AcDbLine
10
-27.567893439524063
20
2.0000000000000147
30
0
11
-29.651964384379362
21
2
31
0
0
SPLINE
5
202
100
AcDbEntity
8
0
100
AcDbSpline
70
4
71
3
72
8
73
4
74
0
42
0.000000001
43
0.0000000001
44
0.0000000001
40
0
40
0
40
0
40
0
40
1
40
1
40
1
40
1
41
1
41
1
41
1
41
1
10
-29.651964384379362
20
2
30
0
10
-31.421768346225608
20
1.9095958887134783
30
0
10
-33.252251290946013
20
0.9886773683954353
30
0
10
-34.759120942026826
20
0
30
0
0
SPLINE
5
203
100
AcDbEntity
8
0
100
AcDbSpline
70
4
71
3
72
8
73
4
74
0
42
0.000000001
43
0.0000000001
44
0.0000000001
40
0
40
0
40
0
40
0
40
1
40
1
40
1
40
1
41
1
41
1
41
1
41
1
10
-34.759120942026826
20
0
30
0
10
-33.252251290946013
20
-0.9886773683954353
30
0
10
-31.421768346225608
20
-1.9095958887134783
30
0
10
-29.651964384379362
20
-2
30
0
0
LINE
5
204
100
AcDbEntity
8
0
100
AcDbLine
10
-29.651964384379362
20
-2.0000000000000004
30
0
11
-27.567893439524056
21
-2.0000000000000022
31
0
0
ARC
5
205
100
AcDbEntity
8
0
100
AcDbCircle
10
-93.370899947245277
20
0
30
0
40
58.511779005218415
210
0
220
-0
230
1
100
AcDbArc
50
5.9588172941873374
51
10.041182705812652
0
LINE
5
206
100
AcDbEntity
8
0
100
AcDbLine
10
-35.755364300041606
20
10.201878966216126
30
0
11
-31.204077072960203
21
11.169284930377257
31
0
0
ELLIPSE
5
207
100
AcDbEntity
8
0
100
AcDbEllipse
10
-31.619900454595719
20
13.12558013184487
30
0
11
-0.41582338163551757
21
1.9562952014676116
31
0.0
40
0.75000000000000433
41
3.1415926535897967
42
6.2831853071795827
0
LINE
5
208
100
AcDbEntity
8
0
100
AcDbLine
10
-32.035723836231242
20
15.08187533331248
30
0
11
-36.58701106331263
21
14.114469369151372
31
0
0
ARC
5
209
100
AcDbEntity
8
0
100
AcDbCircle
10
-93.370899947245277
20
0
30
0
40
58.511779005218443
210
0
220
-0
230
1
100
AcDbArc
50
13.958817294187314
51
18.041182705812652
0
LINE
5
210
100
AcDbEntity
8
0
100
AcDbLine
10
-37.735901863725374
20
18.121127740906626
30
0
11
-33.363544338994856
21
19.712535733478393
31
0
0
ELLIPSE
5
211
100
AcDbEntity
8
0
100
AcDbEllipse
10
-34.047584625646188
20
21.591920975050208
30
0
11
-0.68404028665133632
21
1.8793852415718173
31
0.0
40
0.75000000000000433
41
3.1415926535897896
42
6.2831853071795862
0
LINE
5
212
100
AcDbEntity
8
0
100
AcDbLine
10
-34.731624912297519
20
23.471306216622025
30
0
11
-39.10398243702803
21
21.879898224050276
31
0
0
ARC
5
213
100
AcDbEntity
8
0
100
AcDbCircle
10
-93.370899947245277
20
0
30
0
40
58.511779005218436
210
0
220
-0
230
1
100
AcDbArc
50
21.95881729418733
51
26.041182705812673
0
LINE
5
214
100
AcDbEntity
8
0
100
AcDbLine
10
-40.799311381232506
20
25.687669376597675
30
0
11
-36.690986524588759
21
27.872104451204432
31
0
0
ELLIPSE
5
215
100
AcDbEntity
8
0
100
AcDbEllipse
10
-37.629929650160541
20
29.637999636922284
30
0
11
-0.93894312557178072
21
1.7658951857178544
31
0.0
40
0.75000000000000422
41
3.1415926535897896
42
6.283185307179588
0
LINE
5
216
100
AcDbEntity
8
0
100
AcDbLine
10
-38.568872775732316
20
31.40389482264014
30
0
11
-42.677197632376021
21
29.219459748033394
31
0
0
ARC
5
217
100
AcDbEntity
8
0
100
AcDbCircle
10
-93.370899947245277
20
0
30
0
40
58.511779005218465
210
0
220
-0
230
1
100
AcDbArc
50
29.958817294187316
51
34.04118270581268
0
LINE
5
218
100
AcDbEntity
8
0
100
AcDbLine
10
-44.885967070881406
20
32.754229747164082
30
0
11
-41.121638752508773
21
35.489174359836674
31
0
0
ELLIPSE
5
219
100
AcDbEntity
8
0
100
AcDbEllipse
10
-42.297209257093719
20
37.107208348586568
30
0
11
-1.1755705045849454
21
1.618033988749896
31
0.0
40
0.75000000000000444
41
3.1415926535897949
42
6.283185307179588
0
LINE
5
220
100
AcDbEntity
8
0
100
AcDbLine
10
-43.472779761678666
20
38.725242337336468
30
0
11
-47.237108080051264
21
35.990297724663876
31
0
0
ARC
5
221
100
AcDbEntity
8
0
100
AcDbCircle
10
-93.370899947245277
20
0
30
0
40
58.511779005218443
210
0
220
-0
230
1
100
AcDbArc
50
37.95881729418732
51
42.041182705812695
0
LINE
5
222
100
AcDbEntity
8
0
100
AcDbLine
10
-49.916326828175002
20
39.183266293086064
30
0
11
-46.569263416930596
21
42.415487857892209
31
0
0
ELLIPSE
5
223
100
AcDbEntity
8
0
100
AcDbEllipse
10
-47.958580157848594
20
43.854167458569513
30
0
11
-1.3893167409179938
21
1.438679600677303
31
0.0
40
0.75000000000000433
41
3.1415926535897927
42
6.2831853071795862
0
LINE
5
224
100
AcDbEntity
8
0
100
AcDbLine
10
-49.347896898766592
20
45.292847059246817
30
0
11
-52.694960310010956
21
42.060625494440664
31
0
0
ARC
5
225
100
AcDbEntity
8
0
100
AcDbCircle
10
-93.370899947245277
20
0
30
0
40
58.511779005218443
210
0
220
-0
230
1
100
AcDbArc
50
45.95881729418732
51
50.041182705812595
0
LINE
5
226
100
AcDbEntity
8
0
100
AcDbLine
10
-55.792480422386923
20
44.849645130917857
30
0
11
-52.927828700342502
21
48.516232131696228
31
0
0
ELLIPSE
5
227
100
AcDbEntity
8
0
100
AcDbEllipse
10
-54.503850207555942
20
49.747555082347539
30
0
11
-1.5760215072134434
21
1.2313229506513175
31
0.0
40
0.75000000000000433
41
3.1415926535897936
42
6.2831853071795898
0
LINE
5
228
100
AcDbEntity
8
0
100
AcDbLine
10
-56.079871714769389
20
50.97887803299885
30
0
11
-58.944523436813853
21
47.312291032220557
31
0
0
ARC
5
229
100
AcDbEntity
8
0
100
AcDbCircle
10
-93.370899947245277
20
0
30
0
40
58.511779005218443
210
0
220
-0
230
1
100
AcDbArc
50
53.958817294187327
51
58.041182705812723
0
LINE
5
230
100
AcDbEntity
8
0
100
AcDbLine
10
-62.40005520783172
20
49.643076641991669
30
0
11
-60.073572362263654
21
53.672663133452865
31
0
0
ELLIPSE
5
231
100
AcDbEntity
8
0
100
AcDbEllipse
10
-61.805623169832543
20
54.672663133452858
30
0
11
-1.7320508075688767
21
1.0000000000000009
31
0.0
40
0.75000000000000422
41
3.1415926535897949
42
6.2831853071795951
0
LINE
5
232
100
AcDbEntity
8
0
100
AcDbLine
10
-63.537673977401418
20
55.672663133452858
30
0
11
-65.86415682296942
21
51.643076641991655
31
0
0
ARC
5
233
100
AcDbEntity
8
0
100
AcDbCircle
10
-93.370899947245277
20
0
30
0
40
58.511779005218436
210
0
220
-0
230
1
100
AcDbArc
50
61.958817294187327
51
66.041182705812631
0
LINE
5
234
100
AcDbEntity
8
0
100
AcDbLine
10
-69.610442257315285
20
53.470262134391724
30
0
11
-67.867410630477721
21
57.784416799066264
31
0
0
ELLIPSE
5
235
100
AcDbEntity
8
0
100
AcDbEllipse
10
-69.721778339611291
20
58.533629985898088
30
0
11
-1.8543677091335744
21
0.74921318683182525
31
0.0
40
0.75000000000000433
41
3.141592653589786
42
6.2831853071795933
0
LINE
5
236
100
AcDbEntity
8
0
100
AcDbLine
10
-71.576146048744874
20
59.282843172729912
30
0
11
-73.319177675582452
21
54.968688508055422
31
0
0
ARC
5
237
100
AcDbEntity
8
0
100
AcDbCircle
10
-93.370899947245277
20
0
30
0
40
58.511779005218465
210
0
220
-0
230
1
100
AcDbArc
50
69.958817294187327
51
74.041182705812631
0
LINE
5
238
100
AcDbEntity
8
0
100
AcDbLine
10
-77.283299588613374
20
56.256709795867614
30
0
11
-76.157645308453553
21
60.771462520485727
31
0
0
ELLIPSE
5
239
100
AcDbEntity
8
0
100
AcDbEllipse
10
-78.098236761005552
20
61.255306311685075
30
0
11
-1.9405914525519938
21
0.48384379119933696
31
0.0
40
0.75000000000000411
41
3.1415926535897896
42
6.2831853071795827
0
LINE
5
240
100
AcDbEntity
8
0
100
AcDbLine
10
-80.038828213557537
20
61.739150102884409
30
0
11
-81.164482493717372
21
57.224397378266318
31
0
0
ARC
5
241
100
AcDbEntity
8
0
100
AcDbCircle
10
-93.370899947245277
20
0
30
0
40
58.511779005218457
210
0
220
-0
230
1
100
AcDbArc
50
77.958817294187313
51
82.041182705812659
0
LINE
5
242
100
AcDbEntity
8
0
100
AcDbLine
10
-85.269283761518068
20
57.948184592225857
30
0
11
-84.782916408186523
21
62.575660850458014
31
0
0
ELLIPSE
5
243
100
AcDbEntity
8
0
100
AcDbEllipse
10
-86.771960198923068
20
62.784717776993318
30
0
11
-1.9890437907365468
21
0.20905692653530819
31
0.0
40
0.75000000000000422
41
3.1415926535898002
42
6.2831853071795791
0
LINE
5
244
100
AcDbEntity
8
0
100
AcDbLine
10
-88.761003989659613
20
62.993774703528629
30
0
11
-89.247371342991187
21
58.366298445296501
31
0
0
ARC
5
245
100
AcDbEntity
8
0
100
AcDbCircle
10
-93.370899947245277
20
0
30
0
40
58.511779005218443
210
0
220
-0
230
1
100
AcDbArc
50
85.958817294187341
51
90.041182705812659
0
LINE
5
246
100
AcDbEntity
8
0
100
AcDbLine
10
-93.41295667802612
20
58.511763890579438
30
0
11
-93.57534283882076
21
63.161895120735345
31
0
0
ELLIPSE
5
247
100
AcDbEntity
8
0
100
AcDbEllipse
10
-95.574124492858971
20
63.092096127330343
30
0
11
-1.9987816540381926
21
-0.069798993405000648
31
0.0
40
0.75000000000000433
41
3.1415926535897931
42
6.2831853071795862
0
LINE
5
248
100
AcDbEntity
8
0
100
AcDbLine
10
-97.572906146897154
20
63.022297133925342
30
0
11
-97.410519986102486
21
58.372165903769456
31
0
0
ARC
5
249
100
AcDbEntity
8
0
100
AcDbCircle
10
-93.370899947245277
20
0
30
0
40
58.511779005218436
210
0
220
0
230
1
100
AcDbArc
50
93.958817294187313
51
98.041182705812673
0
LINE
5
250
100
AcDbEntity
8
0
100
AcDbLine
10
-101.55581100810834
20
57.936478260947837
30
0
11
-102.36379002112086
21
62.51875494807841
31
0
0
ELLIPSE
5
251
100
AcDbEntity
8
0
100
AcDbEllipse
10
-104.33340552714527
20
62.171458592744543
30
0
11
-1.9696155060244167
21
-0.34729635533385983
31
0.0
40
0.75000000000000444
41
3.141592653589786
42
6.2831853071795933
0
LINE
5
252
100
AcDbEntity
8
0
100
AcDbLine
10
-106.3030210331697
20
61.824162237410683
30
0
11
-105.49504202015717
21
57.241885550280145
31
0
0
ARC
5
253
100
AcDbEntity
8
0
100
AcDbCircle
10
-93.370899947245277
20
0
30
0
40
58.511779005218457
210
0
220
0
230
1
100
AcDbArc
50
101.95881729418734
51
106.04118270581267
0
LINE
5
254
100
AcDbEntity
8
0
100
AcDbLine
10
-109.53935535458919
20
56.233524983734135
30
0
11
-110.97720082739379
21
60.658758324386817
31
0
0
ELLIPSE
5
255
100
AcDbEntity
8
0
100
AcDbEllipse
10
-112.87931385998408
20
60.040724335636924
30
0
11
-1.902113032590308
21
-0.61803398874989401
31
0.0
40
0.75000000000000444
41
3.1415926535898002
42
6.2831853071795862
0
LINE
5
256
100
AcDbEntity
8
0
100
AcDbLine
10
-114.78142689257439
20
59.42269034688703
30
0
11
-113.34358141976981
21
54.997457006234356
31
0
0
ARC
5
257
100
AcDbEntity
8
0
100
AcDbCircle
10
-93.370899947245277
20
0
30
0
40
58.511779005218436
210
0
220
0
230
1
100
AcDbArc
50
109.95881729418733
51
114.04118270581269
0
LINE
5
258
100
AcDbEntity
8
0
100
AcDbLine
10
-117.20819910791153
20
53.436050107398643
30
0
11
-119.24792501390505
21
57.618107968226013
31
0
0
ELLIPSE
5
259
100
AcDbEntity
8
0
100
AcDbEllipse
10
-121.04551310650338
20
56.741365674647852
30
0
11
-1.7975880925983345
21
-0.87674229357815392
31
0.0
40
0.75000000000000455
41
3.1415926535897931
42
6.2831853071795862
0
LINE
5
260
100
AcDbEntity
8
0
100
AcDbLine
10
-122.84310119910172
20
55.864623381069698
30
0
11
-120.80337529310819
21
51.682565520242377
31
0
0
ARC
5
261
100
AcDbEntity
8
0
100
AcDbCircle
10
-93.370899947245277
20
0
30
0
40
58.511779005218457
210
0
220
0
230
1
100
AcDbArc
50
117.9588172941873
51
122.0411827058127
0
LINE
5
262
100
AcDbEntity
8
0
100
AcDbLine
10
-124.41307694759743
20
49.598503298328737
30
0
11
-127.01498234217352
21
53.455986680090064
31
0
0
ELLIPSE
5
263
100
AcDbEntity
8
0
100
AcDbEllipse
10
-128.67305748728359
20
52.337600873148567
30
0
11
-1.658075145110085
21
-1.1183858069414929
31
0.0
40
0.750000000000004
41
3.1415926535898073
42
6.283185307179572
0
LINE
5
264
100
AcDbEntity
8
0
100
AcDbLine
10
-130.33113263239369
20
51.219215066207077
30
0
11
-127.72922723781758
21
47.3617316844458
31
0
0
ARC
5
265
100
AcDbEntity
8
0
100
AcDbCircle
10
-93.370899947245277
20
0
30
0
40
58.511779005218457
210
0
220
0
230
1
100
AcDbArc
50
125.95881729418734
51
130.04118270581264
0
LINE
5
266
100
AcDbEntity
8
0
100
AcDbLine
10
-131.01375412192439
20
44.795578040018206
30
0
11
-134.12719587620123
21
48.253405416509793
31
0
0
ELLIPSE
5
267
100
AcDbEntity
8
0
100
AcDbEllipse
10
-135.613485527156
20
46.915144203792067
30
0
11
-1.4862896509547894
21
-1.3382612127177156
31
0.0
40
0.75000000000000433
41
3.1415926535898073
42
6.283185307179572
0
LINE
5
268
100
AcDbEntity
8
0
100
AcDbLine
10
-137.0997751781108
20
45.576882991074356
30
0
11
-133.986333423834
21
42.119055614582791
31
0
0
ARC
5
269
100
AcDbEntity
8
0
100
AcDbCircle
10
-93.370899947245277
20
0
30
0
40
58.511779005218443
210
0
220
0
230
1
100
AcDbArc
50
133.9588172941873
51
138.04118270581267
0
LINE
5
270
100
AcDbEntity
8
0
100
AcDbLine
10
-136.88175595785327
20
39.120757809373465
30
0
11
-140.44613446957129
21
42.111626503932271
31
0
0
ELLIPSE
5
271
100
AcDbEntity
8
0
100
AcDbEllipse
10
-141.73170968894436
20
40.579537617694314
30
0
11
-1.2855752193730794
21
-1.5320888862379558
31
0.0
40
0.75000000000000455
41
3.1415926535897931
42
6.283185307179572
0
LINE
5
272
100
AcDbEntity
8
0
100
AcDbLine
10
-143.01728490831746
20
39.047448731456356
30
0
11
-139.45290639659947
21
36.056580036897572
31
0
0
ARC
5
273
100
AcDbEntity
8
0
100
AcDbCircle
10
-93.370899947245277
20
0
30
0
40
58.511779005218436
210
0
220
0
230
1
100
AcDbArc
50
141.95881729418736
51
146.04118270581264
0
LINE
5
274
100
AcDbEntity
8
0
100
AcDbLine
10
-141.9028684744008
20
32.684496527171788
30
0
11
-145.84880717024987
21
35.15019268272092
31
0
0
ELLIPSE
5
275
100
AcDbEntity
8
0
100
AcDbEllipse
10
-146.90864569871627
20
33.454096490408062
30
0
11
-1.0598385284664114
21
-1.6960961923128515
31
0.0
40
0.75000000000000422
41
3.1415926535897789
42
6.2831853071795862
0
LINE
5
276
100
AcDbEntity
8
0
100
AcDbLine
10
-147.9684842271827
20
31.758000298095212
30
0
11
-144.02254553133363
21
29.29230414254608
31
0
0
ARC
5
277
100
AcDbEntity
8
0
100
AcDbCircle
10
-93.370899947245277
20
0
30
0
40
58.511779005218436
210
0
220
0
230
1
100
AcDbArc
50
149.9588172941873
51
154.04118270581264
0
LINE
5
278
100
AcDbEntity
8
0
100
AcDbLine
10
-145.97936142786324
20
25.612068698132422
30
0
11
-150.23005709956743
21
27.504600343691941
31
0
0
ELLIPSE
5
279
100
AcDbEntity
8
0
100
AcDbEllipse
10
-151.04353038571904
20
25.677509428406736
30
0
11
-0.81347328615160142
21
-1.8270909152852015
31
0.0
40
0.75000000000000433
41
3.1415926535897931
42
6.2831853071795862
0
LINE
5
280
100
AcDbEntity
8
0
100
AcDbLine
10
-151.85700367187064
20
23.850418513121539
30
0
11
-147.60630800016651
21
21.957886867562006
31
0
0
ARC
5
281
100
AcDbEntity
8
0
100
AcDbCircle
10
-93.370899947245277
20
0
30
0
40
58.511779005218465
210
0
220
0
230
1
100
AcDbArc
50
157.95881729418736
51
162.0411827058127
0
LINE
5
282
100
AcDbEntity
8
0
100
AcDbLine
10
-149.03189051984344
20
18.041131085180261
30
0
11
-153.50460821124767
21
19.323662244992207
31
0
0
ELLIPSE
5
283
100
AcDbEntity
8
0
100
AcDbEllipse
10
-154.05588292288166
20
17.401138853115565
30
0
11
-0.55127471163399988
21
-1.9225233918766378
31
0.0
40
0.75000000000000422
41
3.1415926535897789
42
6.2831853071795862
0
LINE
5
284
100
AcDbEntity
8
0
100
AcDbLine
10
-154.60715763451566
20
15.478615461238929
30
0
11
-150.13443994311146
21
14.196084301426984
31
0
0
ARC
5
285
100
AcDbEntity
8
0
100
AcDbCircle
10
-93.370899947245277
20
0
30
0
40
58.511779005218443
210
0
220
0
230
1
100
AcDbArc
50
165.95881729418733
51
170.04118270581267
0
LINE
5
286
100
AcDbEntity
8
0
100
AcDbLine
10
-151.00104174376636
20
10.119043377137491
30
0
11
-155.60872509264846
21
10.766611041033684
31
0
0
ELLIPSE
5
287
100
AcDbEntity
8
0
100
AcDbEllipse
10
-155.88707129456856
20
8.7860749035505457
30
0
11
-0.27834620192013204
21
-1.9805361374831409
31
0.0
40
0.75000000000000411
41
3.1415926535898073
42
6.283185307179572
0
LINE
5
288
100
AcDbEntity
8
0
100
AcDbLine
10
-156.16541749648871
20
6.8055387660674054
30
0
11
-151.55773414760668
21
6.1579711021712118
31
0
0
ARC
5
289
100
AcDbEntity
8
0
100
AcDbCircle
10
-93.370899947245277
20
0
30
0
40
58.511779005218465
210
0
220
0
230
1
100
AcDbArc
50
173.95881729418736
51
178.0411827058127
0
LINE
5
290
100
AcDbEntity
8
0
100
AcDbLine
10
-151.84848781093473
20
1.9999999999999889
30
0
11
-156.50145350207077
21
2.0000000000000169
31
0
0
ELLIPSE
5
291
100
AcDbEntity
8
0
100
AcDbEllipse
10
-156.50145350207077
20
1.6653345369377348e-14
30
0
11
-1.5785983631388945e-15
21
-2
31
0.0
40
0.75000000000000433
41
3.1415926535897931
42
6.2831853071795862
0
LINE
5
292
100
AcDbEntity
8
0
100
AcDbLine
10
-156.50145350207077
20
-1.9999999999999836
30
0
11
-151.84848781093476
21
-1.9999999999999862
31
0
0
ARC
5
293
100
AcDbEntity
8
0
100
AcDbCircle
10
-93.370899947245277
20
0
30
0
40
58.511779005218465
210
0
220
0
230
1
100
AcDbArc
50
181.9588172941873
51
186.0411827058127
0
LINE
5
294
100
AcDbEntity
8
0
100
AcDbLine
10
-151.55773414760662
20
-6.1579711021712313
30
0
11
-156.16541749648871
21
-6.8055387660673992
31
0
0
ELLIPSE
5
295
100
AcDbEntity
8
0
100
AcDbEllipse
10
-155.88707129456859
20
-8.7860749035505403
30
0
11
0.27834620192012982
21
-1.9805361374831409
31
0.0
40
0.75000000000000433
41
3.1415926535897789
42
6.2831853071796004
0
LINE
5
296
100
AcDbEntity
8
0
100
AcDbLine
10
-155.60872509264846
20
-10.766611041033682
30
0
11
-151.00104174376642
21
-10.119043377137494
31
0
0
ARC
5
297
100
AcDbEntity
8
0
100
AcDbCircle
10
-93.370899947245277
20
0
30
0
40
58.511779005218465
210
0
220
0
230
1
100
AcDbArc
50
189.9588172941873
51
194.04118270581267
0
LINE
5
298
100
AcDbEntity
8
0
100
AcDbLine
10
-150.13443994311143
20
-14.196084301426994
30
0
11
-154.60715763451569
21
-15.47861546123892
31
0
0
ELLIPSE
5
299
100
AcDbEntity
8
0
100
AcDbEllipse
10
-154.05588292288169
20
-17.401138853115562
30
0
11
0.55127471163399777
21
-1.9225233918766385
31
0.0
40
0.75000000000000444
41
3.1415926535897931
42
6.2831853071795862
0
LINE
5
300
100
AcDbEntity
8
0
100
AcDbLine
10
-153.50460821124767
20
-19.323662244992196
30
0
11
-149.0318905198435
21
-18.041131085180254
31
0
0
ARC
5
301
100
AcDbEntity
8
0
100
AcDbCircle
10
-93.370899947245277
20
0
30
0
40
58.511779005218465
210
0
220
0
230
1
100
AcDbArc
50
197.9588172941873
51
202.04118270581264
0
LINE
5
302
100
AcDbEntity
8
0
100
AcDbLine
10
-147.60630800016645
20
-21.957886867561992
30
0
11
-151.85700367187064
21
-23.850418513121525
31
0
0
ELLIPSE
5
303
100
AcDbEntity
8
0
100
AcDbEllipse
10
-151.04353038571904
20
-25.677509428406733
30
0
11
0.81347328615159931
21
-1.8270909152852024
31
0.0
40
0.75000000000000422
41
3.1415926535898215
42
6.283185307179572
0
LINE
5
304
100
AcDbEntity
8
0
100
AcDbLine
10
-150.23005709956743
20
-27.504600343691941
30
0
11
-145.97936142786327
21
-25.612068698132408
31
0
0
ARC
5
305
100
AcDbEntity
8
0
100
AcDbCircle
10
-93.370899947245277
20
0
30
0
40
58.511779005218436
210
0
220
0
230
1
100
AcDbArc
50
205.9588172941873
51
210.0411827058127
0
LINE
5
306
100
AcDbEntity
8
0
100
AcDbLine
10
-144.02254553133363
20
-29.292304142546051
30
0
11
-147.96848422718273
21
-31.758000298095197
31
0
0
ELLIPSE
5
307
100
AcDbEntity
8
0
100
AcDbEllipse
10
-146.90864569871633
20
-33.454096490408055
30
0
11
1.0598385284664089
21
-1.6960961923128526
31
0.0
40
0.75000000000000433
41
3.1415926535897789
42
6.2831853071796147
0
LINE
5
308
100
AcDbEntity
8
0
100
AcDbLine
10
-145.8488071702499
20
-35.150192682720906
30
0
11
-141.90286847440086
21
-32.684496527171774
31
0
0
ARC
5
309
100
AcDbEntity
8
0
100
AcDbCircle
10
-93.370899947245277
20
0
30
0
40
58.511779005218457
210
0
220
0
230
1
100
AcDbArc
50
213.95881729418733
51
218.0411827058127
0
LINE
5
310
100
AcDbEntity
8
0
100
AcDbLine
10
-139.45290639659942
20
-36.056580036897586
30
0
11
-143.01728490831746
21
-39.04744873145637
31
0
0
ELLIPSE
5
311
100
AcDbEntity
8
0
100
AcDbEllipse
10
-141.73170968894436
20
-40.579537617694328
30
0
11
1.2855752193730785
21
-1.5320888862379576
31
0.0
40
0.750000000000004
41
3.1415926535897647
42
6.2831853071796147
0
LINE
5
312
100
AcDbEntity
8
0
100
AcDbLine
10
-140.44613446957129
20
-42.111626503932285
30
0
11
-136.88175595785333
21
-39.120757809373501
31
0
0
ARC
5
313
100
AcDbEntity
8
0
100
AcDbCircle
10
-93.370899947245277
20
0
30
0
40
58.511779005218465
210
0
220
0
230
1
100
AcDbArc
50
221.95881729418733
51
226.0411827058127
0
LINE
5
314
100
AcDbEntity
8
0
100
AcDbLine
10
-133.98633342383397
20
-42.119055614582777
30
0
11
-137.0997751781108
21
-45.576882991074342
31
0
0
ELLIPSE
5
315
100
AcDbEntity
8
0
100
AcDbEllipse
10
-135.61348552715603
20
-46.915144203792067
30
0
11
1.4862896509547883
21
-1.3382612127177171
31
0.0
40
0.75000000000000422
41
3.1415926535897931
42
6.2831853071795862
0
LINE
5
316
100
AcDbEntity
8
0
100
AcDbLine
10
-134.12719587620123
20
-48.253405416509771
30
0
11
-131.01375412192442
21
-44.795578040018214
31
0
0
ARC
5
317
100
AcDbEntity
8
0
100
AcDbCircle
10
-93.370899947245277
20
0
30
0
40
58.511779005218436
210
0
220
0
230
1
100
AcDbArc
50
229.95881729418733
51
234.04118270581264
0
LINE
5
318
100
AcDbEntity
8
0
100
AcDbLine
10
-127.72922723781758
20
-47.361731684445765
30
0
11
-130.33113263239369
21
-51.219215066207084
31
0
0
ELLIPSE
5
319
100
AcDbEntity
8
0
100
AcDbEllipse
10
-128.67305748728359
20
-52.337600873148574
30
0
11
1.6580751451100832
21
-1.118385806941494
31
0.0
40
0.75000000000000433
41
3.1415926535898073
42
6.2831853071795862
0
LINE
5
320
100
AcDbEntity
8
0
100
AcDbLine
10
-127.01498234217351
20
-53.455986680090071
30
0
11
-124.4130769475974
21
-49.598503298328787
31
0
0
ARC
5
321
100
AcDbEntity
8
0
100
AcDbCircle
10
-93.370899947245277
20
0
30
0
40
58.511779005218436
210
0
220
0
230
1
100
AcDbArc
50
237.95881729418736
51
242.04118270581264
0
LINE
5
322
100
AcDbEntity
8
0
100
AcDbLine
10
-120.80337529310818
20
-51.682565520242335
30
0
11
-122.84310119910175
21
-55.864623381069677
31
0
0
ELLIPSE
5
323
100
AcDbEntity
8
0
100
AcDbEllipse
10
-121.04551310650342
20
-56.741365674647824
30
0
11
1.7975880925983341
21
-0.87674229357815681
31
0.0
40
0.750000000000004
41
3.1415926535898073
42
6.2831853071795862
0
LINE
5
324
100
AcDbEntity
8
0
100
AcDbLine
10
-119.24792501390507
20
-57.618107968225985
30
0
11
-117.20819910791157
21
-53.436050107398657
31
0
0
ARC
5
325
100
AcDbEntity
8
0
100
AcDbCircle
10
-93.370899947245277
20
0
30
0
40
58.511779005218457
210
0
220
0
230
1
100
AcDbArc
50
245.95881729418733
51
250.04118270581267
0
LINE
5
326
100
AcDbEntity
8
0
100
AcDbLine
10
-113.34358141976979
20
-54.997457006234349
30
0
11
-114.78142689257442
21
-59.42269034688703
31
0
0
ELLIPSE
5
327
100
AcDbEntity
8
0
100
AcDbEllipse
10
-112.87931385998411
20
-60.040724335636924
30
0
11
1.9021130325903068
21
-0.61803398874989646
31
0.0
40
0.75000000000000433
41
3.1415926535898002
42
6.2831853071795862
0
LINE
5
328
100
AcDbEntity
8
0
100
AcDbLine
10
-110.9772008273938
20
-60.658758324386817
30
0
11
-109.53935535458922
21
-56.233524983734149
31
0
0
ARC
5
329
100
AcDbEntity
8
0
100
AcDbCircle
10
-93.370899947245277
20
0
30
0
40
58.511779005218457
210
0
220
0
230
1
100
AcDbArc
50
253.95881729418733
51
258.04118270581267
0
LINE
5
330
100
AcDbEntity
8
0
100
AcDbLine
10
-105.49504202015714
20
-57.241885550280109
30
0
11
-106.3030210331697
21
-61.824162237410661
31
0
0
ELLIPSE
5
331
100
AcDbEntity
8
0
100
AcDbEllipse
10
-104.33340552714527
20
-62.171458592744528
30
0
11
1.969615506024416
21
-0.34729635533386199
31
0.0
40
0.75000000000000422
41
3.141592653589786
42
6.2831853071795862
0
LINE
5
332
100
AcDbEntity
8
0
100
AcDbLine
10
-102.36379002112086
20
-62.518754948078396
30
0
11
-101.55581100810835
21
-57.936478260947851
31
0
0
ARC
5
333
100
AcDbEntity
8
0
100
AcDbCircle
10
-93.370899947245277
20
0
30
0
40
58.511779005218436
210
0
220
0
230
1
100
AcDbArc
50
261.95881729418733
51
266.04118270581273
0
LINE
5
334
100
AcDbEntity
8
0
100
AcDbLine
10
-97.410519986102472
20
-58.372165903769435
30
0
11
-97.572906146897154
21
-63.022297133925349
31
0
0
ELLIPSE
5
335
100
AcDbEntity
8
0
100
AcDbEllipse
10
-95.574124492858971
20
-63.09209612733035
30
0
11
1.9987816540381911
21
-0.069798993405002813
31
0.0
40
0.75000000000000444
41
3.141592653589786
42
6.2831853071795933
0
LINE
5
336
100
AcDbEntity
8
0
100
AcDbLine
10
-93.575342838820774
20
-63.161895120735352
30
0
11
-93.41295667802612
21
-58.511763890579473
31
0
0
ARC
5
337
100
AcDbEntity
8
0
100
AcDbCircle
10
-93.370899947245277
20
0
30
0
40
58.511779005218465
210
0
220
0
230
1
100
AcDbArc
50
269.95881729418733
51
274.04118270581273
0
LINE
5
338
100
AcDbEntity
8
0
100
AcDbLine
10
-89.24737134299113
20
-58.366298445296465
30
0
11
-88.761003989659599
21
-62.993774703528622
31
0
0
ELLIPSE
5
339
100
AcDbEntity
8
0
100
AcDbEllipse
10
-86.771960198923054
20
-62.784717776993311
30
0
11
1.9890437907365468
21
0.2090569265353065
31
0.0
40
0.75000000000000433
41
3.1415926535897931
42
6.2831853071795862
0
LINE
5
340
100
AcDbEntity
8
0
100
AcDbLine
10
-84.782916408186509
20
-62.575660850458007
30
0
11
-85.269283761518068
21
-57.948184592225886
31
0
0
ARC
5
341
100
AcDbEntity
8
0
100
AcDbCircle
10
-93.370899947245277
20
0
30
0
40
58.511779005218443
210
-0
220
0
230
1
100
AcDbArc
50
277.95881729418738
51
282.04118270581267
0
LINE
5
342
100
AcDbEntity
8
0
100
AcDbLine
10
-81.164482493717401
20
-57.224397378266289
30
0
11
-80.038828213557579
21
-61.739150102884409
31
0
0
ELLIPSE
5
343
100
AcDbEntity
8
0
100
AcDbEllipse
10
-78.09823676100558
20
-61.255306311685082
30
0
11
1.9405914525519943
21
0.48384379119933379
31
0.0
40
0.75000000000000433
41
3.1415926535897896
42
6.2831853071795862
0
LINE
5
344
100
AcDbEntity
8
0
100
AcDbLine
10
-76.157645308453596
20
-60.771462520485748
30
0
11
-77.283299588613431
21
-56.25670979586765
31
0
0
ARC
5
345
100
AcDbEntity
8
0
100
AcDbCircle
10
-93.370899947245277
20
0
30
0
40
58.511779005218457
210
-0
220
0
230
1
100
AcDbArc
50
285.95881729418727
51
290.04118270581262
0
LINE
5
346
100
AcDbEntity
8
0
100
AcDbLine
10
-73.319177675582495
20
-54.968688508055415
30
0
11
-71.576146048744903
21
-59.282843172729905
31
0
0
ELLIPSE
5
347
100
AcDbEntity
8
0
100
AcDbEllipse
10
-69.721778339611319
20
-58.533629985898088
30
0
11
1.8543677091335751
21
0.74921318683182281
31
0.0
40
0.75000000000000444
41
3.1415926535897967
42
6.2831853071795791
0
LINE
5
348
100
AcDbEntity
8
0
100
AcDbLine
10
-67.86741063047775
20
-57.784416799066271
30
0
11
-69.610442257315327
21
-53.470262134391774
31
0
0
ARC
5
349
100
AcDbEntity
8
0
100
AcDbCircle
10
-93.370899947245277
20
0
30
0
40
58.511779005218443
210
-0
220
0
230
1
100
AcDbArc
50
293.95881729418727
51
298.04118270581262
0
LINE
5
350
100
AcDbEntity
8
0
100
AcDbLine
10
-65.864156822969463
20
-51.643076641991669
30
0
11
-63.537673977401425
21
-55.672663133452858
31
0
0
ELLIPSE
5
351
100
AcDbEntity
8
0
100
AcDbEllipse
10
-61.805623169832543
20
-54.672663133452858
30
0
11
1.7320508075688781
21
0.99999999999999922
31
0.0
40
0.75000000000000444
41
3.1415926535897931
42
6.2831853071795827
0
LINE
5
352
100
AcDbEntity
8
0
100
AcDbLine
10
-60.073572362263661
20
-53.672663133452865
30
0
11
-62.400055207831656
21
-49.643076641991669
31
0
0
ARC
5
353
100
AcDbEntity
8
0
100
AcDbCircle
10
-93.370899947245277
20
0
30
0
40
58.511779005218457
210
-0
220
0
230
1
100
AcDbArc
50
301.95881729418733
51
306.04118270581267
0
LINE
5
354
100
AcDbEntity
8
0
100
AcDbLine
10
-58.944523436813881
20
-47.31229103222055
30
0
11
-56.079871714769382
21
-50.97887803299885
31
0
0
ELLIPSE
5
355
100
AcDbEntity
8
0
100
AcDbEllipse
10
-54.503850207555935
20
-49.747555082347539
30
0
11
1.5760215072134445
21
1.2313229506513164
31
0.0
40
0.75000000000000422
41
3.1415926535897918
42
6.2831853071795845
0
LINE
5
356
100
AcDbEntity
8
0
100
AcDbLine
10
-52.927828700342488
20
-48.516232131696228
30
0
11
-55.792480422386951
21
-44.849645130917921
31
0
0
ARC
5
357
100
AcDbEntity
8
0
100
AcDbCircle
10
-93.370899947245277
20
0
30
0
40
58.511779005218457
210
-0
220
0
230
1
100
AcDbArc
50
309.95881729418738
51
314.04118270581262
0
LINE
5
358
100
AcDbEntity
8
0
100
AcDbLine
10
-52.694960310011005
20
-42.0606254944407
30
0
11
-49.347896898766606
21
-45.292847059246853
31
0
0
ELLIPSE
5
359
100
AcDbEntity
8
0
100
AcDbEllipse
10
-47.958580157848615
20
-43.854167458569549
30
0
11
1.3893167409179963
21
1.4386796006773013
31
0.0
40
0.75000000000000444
41
3.1415926535897918
42
6.2831853071795916
0
LINE
5
360
100
AcDbEntity
8
0
100
AcDbLine
10
-46.569263416930617
20
-42.415487857892245
30
0
11
-49.916326828174974
21
-39.183266293086092
31
0
0
ARC
5
361
100
AcDbEntity
8
0
100
AcDbCircle
10
-93.370899947245277
20
0
30
0
40
58.511779005218465
210
-0
220
0
230
1
100
AcDbArc
50
317.95881729418733
51
322.04118270581267
0
LINE
5
362
100
AcDbEntity
8
0
100
AcDbLine
10
-47.237108080051264
20
-35.990297724663854
30
0
11
-43.47277976167868
21
-38.725242337336489
31
0
0
ELLIPSE
5
363
100
AcDbEntity
8
0
100
AcDbEllipse
10
-42.297209257093726
20
-37.107208348586596
30
0
11
1.1755705045849476
21
1.6180339887498938
31
0.0
40
0.75000000000000433
41
3.1415926535897896
42
6.2831853071795809
0
LINE
5
364
100
AcDbEntity
8
0
100
AcDbLine
10
-41.12163875250878
20
-35.489174359836703
30
0
11
-44.885967070881385
21
-32.754229747164104
31
0
0
ARC
5
365
100
AcDbEntity
8
0
100
AcDbCircle
10
-93.370899947245277
20
0
30
0
40
58.511779005218443
210
-0
220
0
230
1
100
AcDbArc
50
325.95881729418733
51
330.04118270581273
0
LINE
5
366
100
AcDbEntity
8
0
100
AcDbLine
10
-42.677197632376064
20
-29.219459748033366
30
0
11
-38.568872775732338
21
-31.403894822640154
31
0
0
ELLIPSE
5
367
100
AcDbEntity
8
0
100
AcDbEllipse
10
-37.629929650160548
20
-29.637999636922299
30
0
11
0.93894312557178294
21
1.7658951857178542
31
0.0
40
0.75000000000000411
41
3.1415926535897896
42
6.283185307179588
0
LINE
5
368
100
AcDbEntity
8
0
100
AcDbLine
10
-36.690986524588773
20
-27.872104451204443
30
0
11
-40.799311381232471
21
-25.68766937659769
31
0
0
ARC
5
369
100
AcDbEntity
8
0
100
AcDbCircle
10
-93.370899947245277
20
0
30
0
40
58.511779005218457
210
-0
220
0
230
1
100
AcDbArc
50
333.95881729418733
51
338.04118270581267
0
LINE
5
370
100
AcDbEntity
8
0
100
AcDbLine
10
-39.103982437028037
20
-21.87989822405024
30
0
11
-34.731624912297512
21
-23.471306216622029
31
0
0
ELLIPSE
5
371
100
AcDbEntity
8
0
100
AcDbEllipse
10
-34.047584625646174
20
-21.591920975050215
30
0
11
0.68404028665133831
21
1.8793852415718164
31
0.0
40
0.75000000000000433
41
3.1415926535897931
42
6.2831853071795898
0
LINE
5
372
100
AcDbEntity
8
0
100
AcDbLine
10
-33.363544338994835
20
-19.712535733478397
30
0
11
-37.735901863725339
21
-18.12112774090664
31
0
0
ARC
5
373
100
AcDbEntity
8
0
100
AcDbCircle
10
-93.370899947245277
20
0
30
0
40
58.511779005218457
210
-0
220
0
230
1
100
AcDbArc
50
341.95881729418733
51
346.04118270581273
0
LINE
5
374
100
AcDbEntity
8
0
100
AcDbLine
10
-36.587011063312652
20
-14.114469369151328
30
0
11
-32.035723836231234
21
-15.081875333312471
31
0
0
ELLIPSE
5
375
100
AcDbEntity
8
0
100
AcDbEllipse
10
-31.619900454595712
20
-13.125580131844858
30
0
11
0.41582338163551941
21
1.9562952014676116
31
0.0
40
0.75000000000000444
41
3.1415926535897896
42
6.2831853071795898
0
LINE
5
376
100
AcDbEntity
8
0
100
AcDbLine
10
-31.204077072960192
20
-11.169284930377245
30
0
11
-35.755364300041585
21
-10.201878966216139
31
0
0
ARC
5
377
100
AcDbEntity
8
0
100
AcDbCircle
10
-93.370899947245277
20
0
30
0
40
58.511779005218457
210
-0
220
0
230
1
100
AcDbArc
50
349.95881729418738
51
354.04118270581273
0
LINE
5
378
100
AcDbEntity
8
0
100
AcDbLine
10
-35.17527349600676
20
-6.0743184229529357
30
0
11
-30.533642195437082
21
-6.3988929020189564
31
0
0
ELLIPSE
5
379
100
AcDbEntity
8
0
100
AcDbEllipse
10
-30.394129247948829
20
-4.4037648014993085
30
0
11
0.1395129474882526
21
1.9951281005196488
31
0.0
40
0.75000000000000422
41
3.1415926535897931
42
6.2831853071795827
0
LINE
5
380
100
AcDbEntity
8
0
100
AcDbLine
10
-30.254616300460576
20
-2.4086367009796597
30
0
11
-34.896247601030204
21
-2.0840622219136118
31
0
0
ARC
5
381
100
AcDbEntity
8
0
100
AcDbCircle
10
-93.370899947245277
20
0
30
0
40
58.511779005218457
210
-0
220
0
230
1
100
AcDbArc
50
-2.0411827058125809
51
2.0411827058125902
0
LINE
5
382
100
AcDbEntity
8
0
100
AcDbLine
10
-34.896247601030225
20
2.0840622219135945
30
0
11
-30.254616300460583
21
2.4086367009796286
31
0
0
ELLIPSE
5
383
100
AcDbEntity
8
0
100
AcDbEllipse
10
-30.394129247948833
20
4.4037648014992765
30
0
11
-0.13951294748824949
21
1.9951281005196486
31
0.0
40
0.75000000000000433
41
3.1415926535897896
42
6.2831853071795862
0
LINE
5
384
100
AcDbEntity
8
0
100
AcDbLine
10
-30.533642195437082
20
6.3988929020189254
30
0
11
-35.175273496006753
21
6.074318422952941
31
0
0
ENDSEC
0
SECTION
2
OBJECTS
0
DICTIONARY
5
C
100
AcDbDictionary
3
ACAD_GROUP
350
D
3
ACAD_MLINESTYLE
350
17
0
DICTIONARY
5
D
100
AcDbDictionary
0
DICTIONARY
5
1A
330
C
100
AcDbDictionary
0
DICTIONARY
5
17
100
AcDbDictionary
0
ENDSEC
0
EOF
